<svg width="15" height="14" viewBox="0 0 15 14" fill="none" xmlns="http://www.w3.org/2000/svg">
<path d="M14.4201 9.73019H5.11537L5.58256 8.77863L13.3451 8.76456C13.6076 8.76456 13.8326 8.57706 13.8794 8.31769L14.9544 2.3005C14.9826 2.14269 14.9404 1.98019 14.8372 1.85675C14.7863 1.796 14.7227 1.74707 14.6509 1.71334C14.5792 1.67961 14.5009 1.6619 14.4216 1.66144L4.54662 1.62863L4.46224 1.23175C4.40912 0.978625 4.18099 0.79425 3.92162 0.79425H1.50756C1.36127 0.79425 1.22098 0.852361 1.11754 0.955799C1.0141 1.05924 0.955994 1.19953 0.955994 1.34581C0.955994 1.4921 1.0141 1.63239 1.11754 1.73583C1.22098 1.83926 1.36127 1.89738 1.50756 1.89738H3.47474L3.84349 3.6505L4.75131 8.04581L3.58256 9.95363C3.52186 10.0355 3.4853 10.1328 3.47702 10.2344C3.46874 10.336 3.48906 10.438 3.53568 10.5286C3.62943 10.7146 3.81849 10.8318 4.02787 10.8318H5.00912C4.79993 11.1096 4.68694 11.448 4.68724 11.7958C4.68724 12.6802 5.40599 13.3989 6.29037 13.3989C7.17474 13.3989 7.89349 12.6802 7.89349 11.7958C7.89349 11.4474 7.77787 11.1083 7.57162 10.8318H10.0888C9.87962 11.1096 9.76662 11.448 9.76693 11.7958C9.76693 12.6802 10.4857 13.3989 11.3701 13.3989C12.2544 13.3989 12.9732 12.6802 12.9732 11.7958C12.9732 11.4474 12.8576 11.1083 12.6513 10.8318H14.4216C14.7247 10.8318 14.9732 10.5849 14.9732 10.2802C14.9723 10.1341 14.9136 9.99422 14.81 9.89118C14.7064 9.78814 14.5662 9.73027 14.4201 9.73019V9.73019ZM4.77631 2.71613L13.7732 2.74581L12.8919 7.68019L5.82474 7.69269L4.77631 2.71613ZM6.29037 12.2896C6.01849 12.2896 5.79662 12.0677 5.79662 11.7958C5.79662 11.5239 6.01849 11.3021 6.29037 11.3021C6.56224 11.3021 6.78412 11.5239 6.78412 11.7958C6.78412 11.9268 6.7321 12.0524 6.6395 12.1449C6.54691 12.2375 6.42132 12.2896 6.29037 12.2896V12.2896ZM11.3701 12.2896C11.0982 12.2896 10.8763 12.0677 10.8763 11.7958C10.8763 11.5239 11.0982 11.3021 11.3701 11.3021C11.6419 11.3021 11.8638 11.5239 11.8638 11.7958C11.8638 11.9268 11.8118 12.0524 11.7192 12.1449C11.6266 12.2375 11.501 12.2896 11.3701 12.2896V12.2896Z" fill="white"/>
</svg>
